# xmcd CD database file
#
# Track frame offsets:
#	150
#	12468
#	30220
#	40089
#	60445
#	93688
#	120932
#	144053
#	171535
#
# Disc length: 2674 seconds
#
# Revision: 0
# Processed by: cddbd v1.4PL0 Copyright (c) Steve Scherf et al.
# Submitted via: CDex 1.50Beta7
#
DISCID=670a7009
DTITLE=2003 All County Band - 2003 All County Band
DYEAR=2003
DGENRE=Jazz
TTITLE0=Activity March
TTITLE1=New England Festival
TTITLE2=Suo Gan
TTITLE3=The Forge of Vulcan
TTITLE4=Irish Rhapsody
TTITLE5=Das Pensionat
TTITLE6=As Summer Was Just Beginning
TTITLE7=West Highland Sojourn
TTITLE8=Sedona
EXTD=YEAR: 2003
EXTT0=
EXTT1=
EXTT2=
EXTT3=
EXTT4=
EXTT5=
EXTT6=
EXTT7=
EXTT8=
PLAYORDER=
